<mxfile host="Electron" agent="Mozilla/5.0 (Windows NT 10.0; Win64; x64) AppleWebKit/537.36 (KHTML, like Gecko) draw.io/27.0.5 Chrome/134.0.6998.205 Electron/35.3.0 Safari/537.36" version="27.0.5">
  <diagram id="sf5Vi_rfvGMIgQSJVesW" name="Page-1">
    <mxGraphModel dx="1426" dy="841" grid="1" gridSize="10" guides="1" tooltips="1" connect="1" arrows="1" fold="1" page="1" pageScale="1" pageWidth="840" pageHeight="650" background="#DDDDDD" math="0" shadow="0">
      <root>
        <mxCell id="0" />
        <mxCell id="1" parent="0" />
        <mxCell id="RNjMHlu9G6rryLTxrSeN-1" value="" style="shape=image;verticalLabelPosition=bottom;labelBackgroundColor=default;verticalAlign=top;aspect=fixed;imageAspect=0;image=data:image/png,iVBORw0KGgoAAAANSUhEUgAAA0gAAAKKCAYAAAAHsHvQAAAACXBIWXMAABD5AAAQ+QFmfjs/AAAAIGNIUk0AAHolAACAgwAA+f8AAIDpAAB1MAAA6mAAADqYAAAXb5JfxUYAAHQcSURBVHja7P15kCRpft75Pe/r7nFlRt5ZlVXZdXR1Xd09fc30PRgS4nABEiJICdTSlrbgkgszYrG7Io2kJJiRK6NWkMiVmUgZjWtrWlIksQS0MCwPiAtwSYDDOTGYwfQcmLunu66s+8g7IyMj/Hpf/RGZ0ZmVmVWVR1VFRnw/ZtFVFeke6fFz9+j3iff1183P//zPez0mKysrmp6eVhzHSpJEE4cP6Y//1P9aYRgqCIINf4ZhqBNHD2sldfr2t7+t73znO6rduapyMWq9mJfKpaJGhqqP9LtHBgdk1NmWV1YUp9kjLz87v6hmnGx4zkQl9R96RtVqVf39/e0/gyDQuXPntnyd9TUPw1BRFCkMQ124cEHGGDWbTTUaDTWbTTWbTf3Wb/2W5ubm9vRejTHq6+uT963Dbas/73+cPhbo7/1iVcYYeb+6TOvV9Au/NKOrt52MMe2HtVbGmPbvW3usZ61t/87127Z+W9as//d2f3/U5R60zv3bsdW/9+vvW/37Qcutbed269z/ftbWWb9fjTFyzm3Yt2+88Yb+2l/7axvW997rM5/5jH75l395y3241b/Xfs/afr1/X65f5kG174b9v93PHtf+X19v59yGddb+ff/5vfa8c07/+z/bp5/5dHnT6168lunnf2lhw/5eO7/X9vX642G797u+xvcfB51+fGz13OM6Ph603IOOgfXn+to+2a6+zrkNr7XV570k/Y2/8Tf00ksvbfp9P/uzP6s8z7f8LNjqON/uWNhqfz/Kvt/pz57mZ8fjPC4e5T3f//l//+Nv/eUBvXK2IGPWXt/LSPr81xP93V+pb9i/QRC0P2e2+n+6MUZpmiqO4z23x44fP67Dhw+rWq1uaE9573XmzJkta76+HbX2+OD999VXrW5qR03fuaXvf+1Lm16nUi5qeHDgkbezr1RSqVjoyDZtlmVarK88cJmZuQXFSSrJaLmZSJUhvfrqq+3H737xCwoLReV5rizL2n9mWaY/+Pp7+sa3v6NisahisajBwUGNjIw8tvdjBQAAAACQJIUHdcMzb9RQpP/Vp39Sff1V+U3p/gC8Ce/1ld/9ohZn7qgSOI5GAAAAgIC0Oyu5VXXskF5/6+0DvQMWa8v6d7/z2wQkAAAAgIC0N+vHoqauqYXmbOdvs4yGy4cVmKD9HjzHIQAAAEBA2k///Ad/T4vx3gKSMUaFoKRiWFJgo/bzmUuVZA0lWSy/D3Hm1PDH9JPP/XmOPgAAAICA9HjUk8UdrxMFBQ2WxzRUHtVAeVQDpSEZY1UMywqDSIEJ5byT85nirKk0i7XUnNdiY7b9yFy6i21d4sgDAAAACEidoVoa1tHBZ3V44BkFplWC0EYaLI+qrzigwLaGv23oK/JecdZQtTmvwfKoJMn5XLPLd3RrcUrzK/c4mgAAAAAC0sEx2jehk6PnVSlUVzOPV+ZTDVXGNFgek5Fp9RjlaxMmbBxOZ22oocq4KoWqppdvyeWJhivjGq6MqxYv6NL097UcL3JUAQAAAASkzlUIS3pu7EUNVcYlaXVYXOvmY+P9kyoX+pXlG2/Auulao3X/NDIa65vQzPItNdLWjc3KUZ9ePPqm7i3d0PX5i7saegcAAACAgPRYVUvDem78Y4psQVmebkg8o/1HFNpIaRZvzkL33yV6i/g0WB5TnDUVZ832T0b6JlQtDevS9Pe51ggAAAAgIHWO4cq4Toyel5HZ0KPj5dVfHFQYFBTn8aYwpC1mqvObOpT8agAb0Urturz/6D5GxhidGn9RV2Z+yJA7AAAAgID09FVLQ5ocek65y+4LOl7GWJXCipK0uUUYevBE3n6LvxXD0kdBaF2SOjZ8RlOz77eH4QEAAAAgID1xUVDQkcGTyre4DshLqhT6lbpkmwS0Re/R+li0RXoKbbQ6fG/zD48MntTVuR8pdzlHGwAAAEBAevIOVZ9RaKItg46RFAVF5XmmrdLTg/qPtv+ZVyEoKs3jTT8pBEWNVA5revkWRxsAAABAQHqyylGffuL0n9NAYWTbZYIg2Pff65yT91sHqEvz39XvfPirSvOEIw4AAAAgID05/cVBVaPhbcOKpG1/9qB1HsZ7v+36g4VRVQpVLTZmOeIAAAAAAtKTYWQUBKEylym04Y4D0qMst5vglbhEoY042gAAAAAC0pMT2FBZnunzV/6ZBkujHwWXLZZbl2q2WWqLZ7Z4Yu26JK/te5DuLE/Jy8uaQM4zWQMAAABAQHoCrLHKXKrby1d0e/nKfQFoaw+e1PvhHt4b9dHPjTHa468DAAAAQEB6xLAir2wHEyE8NBz5Pa4vv7MXBAAAAEBA2i/O58q2uPfRtvHFP9otYXeRnbbsuXLeccQBAAAABKQnFJCcU6ZHC0g77/15aP556Pp7mSUPAAAAAAFpR7y8MpfqjaM/qYn+Ex2zXT+c+ZouzX2How0AAAAgID1Z1lh94uinZWQ6ZpsCGxKQAAAAgIOQJygBAAAAALR0XQ+S807fuv05He473jHb9MPpr3GkAQAAAASkp+O9m7/NnpXUbDa3fD4IAgVBoDAMFQSBoihSGIYUDAAAYFWWZWo0GhueM5KMNQrDqN2OCsNQYRgqzVKKRkBCJ5uZmdHCwsKO1qlWqzp+/DjFAwAAPc05p9nZWS0tLT3yOt45vVStUjwCEjpRlmVK01TO7ey+S9PT0zp27BgFBAAAPe3WrVsKgkBJkuxovQsffqhnTz1HAQlI6DR3796VtVZ5nu943YsXLxKSAABAz3LOKY7jXV1+MDeX6NhxhtoRkNBhJ3WuJElk7e4mKLxz546eeeYZCgkAAHrS3bt3ZYzZce/RmksXL+r4iZMUkoCETjE/M60s93t6jcuXL+vo0aMUEwAA9BTvvRqNxp4mr7p7954m+bKZgNQJDvef1M3axQOyrScey+s6l2t5pSmZvd0k9+bNmzpy5AhnBwAA6Cn37t2T937XvUdrLl+6pGPHT1BQAtLT9SfP/Wc9vzNrC/OKk1TGGJ0+fVqvvPLKlsttN8335z73Of3oRz+SJE1NTRGSAABAz1jrPTLGqFgs6hOf+MSWI2qMMRum9177+40bN/SlL31JtVpNN27c1NHJSYpKQHqyrJHiOJb3XmaPPSZPU6PRkPF+H05qp9ryipykEydOaHx8XKVSaduAtHZSh2HYDkgvvPCC0jTV+++/r6tXr2piYoIzBAAA9IS5uTmlaapCoaDnn39exWJxy7aUMWZDO2rtUSgU9OM//uP6zGc+o6WlJU1duaLJZ57exFdeUp5lSvNcznl5ecm3BhpZYxUEVmEQylrDzu+WgNRnc8W1af3zX/lH6qsOau2ym/laXcVSWX19ferr61OxWNSFD97X2NDAE7sZapJmWqg3ValU2tuxUl/W7PRdjQ4NtgKepDxLdOnihxop5Hv+nfXFBTWTRJOTk5qYmJDfZeh66aWXFMexfvSjH+natWs6fPgwZwkAAOh6y8vLKhQKOn36tEql0o5vl+KcU6lU0qc+9Sl99rOf1dTUVR058uSv6c7zXI04Vprlcg9pDxoZhYFVsVBUscDUBAc+IBkjlQKvuVtTmlv3/IW7NZX7BzQ0NKTh4WH191V08ft/IHvsiMrF6Ils29JKrB/cWtDQ0FD70awtaObGFRWOfdQrs7yyojDPWrdl3ss3BN5pqVbX+OHDOnTo0Opzfhev01rnYx/7mOI41uXLl9uvBwAA0K0WFhbkvdeJEydULBZ31ZZaC1SlUknvvvuuPv/5z+vmtSmVyuUn8ya8V73RVJxmrd6iR1lFXmmeK22sqBkH6quUFQa2548HKtAFmss19VWrGhkZ2RR2duuFF17QxMSErl+/ToEBAEDX8t6r2WxqcnKyHY5205Zav3ypVNI777yjG7fvKs+zJ5GNtFivq5mmjxyO7pe5XEvLy0qzvOePCQJSF5zUzoYaGhra8PxOu4W3+iB4/vnnlabpnsMWAABAp2o2mxodHVUURXtqS93fXiqVSnrt4x/X7MzMY38P9ZWGstzt+XW8WiOcXI+3/QhIB5wxRn19ffsWtu733HPPEZAAAEDXKpVKm8KRJGXZznp+fJ5v+dpj44/3coUsd4qzdN9ez3mvZhwTkIAHHiSWwwQAAHSnxz0b8uNuR+00yD3aa7qePiZo+QIAAAAEvHUv2ts1JSABAAAAB1QUBjL7fDVEFPT2lN8EJAAAAOCgNuatVbGwf7eyCYxV6QndGoeABAAAAGDfVSplRUGw59cxMurvqzz267IISAAAAAAeGyOp2t+ncqEos8sLiKIg0FC1jxvFSgo5pAAAAICDH5Iq5aJKxUjNOFWSJcqdf+g6hShUsVBUFAYUsZcCkvdSmmcysVPuvPLcKc9zyUjO+fYdh9ffEMxtcUAZY7TW42iNbc/wEaxO32iMURgEipOMIwsAAABPnLVWlXJRFVNSnmXKcifnnLyXvJyMsbLWKLCBosBKPT6crmsDkvdeSZopzTLl99312Dmv+cUl3bD+iSXjOHOSihufS1LNL9Z0r1JUFIaKolBpTpACAADAY2kgKwgCBUFwQDffP7XffWADUu5y1VeaasaJ0ixvFdF7OXf/rBteznvlzin09rFedGYk5d63ep/M/dvr1ExSzddqsjKSMUrSVF5exUJBlXJJpUKBkxkAAAB4ig5sQJqeXVSe52o2Y2XOtYfEuYKVyzOlSaK42ZRcrjTNVFuua8W2uhGtNSpEkSql4r5sSyNOlCRJu/syl5GpFJSlqZI4VrPRULPRUJIkWlhcliRZayQjFaKCGo1YjUas0eFBlYqEpDV3ZnP9vf+xvhp+Jee9/OqQyJkFT4EOsLt37+ozn/lM6yuM1W+IvPf64Q9/SHF6xL///aYuXsvkvZdzbnUIs9HSsqM4QJf6l/+uoc+/F8s7J2ONjIyMNbozw3kPAtK+GB8Z1HKjqTAMlCRp+1oi7xNli3dVX5lT/W5r2aOjAzJGMsauXidkZe3+zdBRKRZUiELlzrUa8M7LuxW5pRUtLN3Vwupyh0eqq9sgBUGgPMvkJRULBZVLRcLRfWp1r3/3lVje+3Yjau06MWttz09BeZBdvXpV//gf/+N2OFrbr8aYfT030bnev5zph5fS9nm9tu85BnrXP/kn/0Tlcrn9ubAWmvM8pzhd4pvvr32Z7Nv7d+2c57wHAWkfBEGgwf4+Dfb3yTnXvgYpy3Nlea5SoaA8z7ecbGG/ebUmagi2ObmNMQqC1s8LYaQwClQII2V5Ki8a+QAA3L59u/2F2PqAtPYAAALSDlhrVSoWNvTAjAwOyKyGF5fnyp1TnjtleS6Xu9a1Qr71rbXfMJPdR8N9/PoJH9Z9q2mN+WgGO2PljWT8aggKPpoZpPXvoLX8FpZXVhSnTNQAAAAAEJCeECN9NINHxA4HAAAAsD0GfAIAAAAAAQkAAAAANgopAQAAAID1vCR5J+eNjFZvUUNAAgAAANBLsixTM0mVZpmc/2g2aGuMwiBQsVBQFIVdPQ8zAQkAAACAllcaitN0y58575VkmZIsUyEM1VepqFs7lbgGCQAAAOhxK81423B0vyTLVF9pdG0tCEgAAABAj4uTZEfLp1kmT0ACAAAA0JUMJSAg7QPvpdx5ee+7NkEDAACg+5ULxR0tXyxGXZupmKRhB3LnlCSpkjRT7pzWxyIjKbBWURipUAgVBgEFAwAAwBOR5rmSJFGWOeUul19tn1prFYWhCmGoKAofEHgK8l5qxLEe9NW/8a1wVCmVuraWBKRH1IwT1ZvNbX/uJWXOKUtiNZJYpUKkSrlMb+UeWCuVi7bVQ+edvLdyrtVz10yMPN12wIFVLBhFoZFzknOSMUbWts7xZkJ9gG5UKhoF1so5L2OMjDWyxijLpTSjPrvlvNPySlNplm3ZPs2dU54kaiaJoiBQf6UsazcPIjOSyqWCCoVIcZIoyzJleStoWWNkTStoFQuRgqC7B6ERkB7Rg8LRloEqSVWMCgpDepJ267lnQv29X6zKmFYY+mgoo9Ev/NKMrt52FAk4oH7+f9enn/l0edPzF69l+vlfWqBAQBf6m78woFfOFmRM60sRyctI+vzXE/3dX6lToN2EI+e0WF+Rc4/WJkrzXAu1uob6+2S3CTmBNaqUipKKPVtXrkF6RNEOh8wFxipgmB0AAAAek3qj+cjhaI2X1/IOv/gnIGFL1f4+VYpFBfbBJbPGqlQoaKC/T4bxdQAAAHgMvKQ0y3e1bpplco5rFbbDELtH1BqXWVS5VGyN5cxzOe/lnJc1RsZYBdYwpA4AAACPPyB5aS/zKHuzNo0DCEj7ILD2oT1JAAAAwONiTesSkDTfeS9SYK2soS27bW0pAQAAAHDwVMqlHfcBGRn1M9MyAQkAAADoNmEQaLC/75FHNgXGqtpX4ZKQh9WVEjxmazfrYcYGAAAA7LMgCDRU7VczTpRkmbIs33BtkpFRGFgVokilQkSblID0dGRZrkYSK00/OkCNjAphqFKpoJDpvwEAALCPSsWCSsWCvCTnvLxv3ZA3sASinWKI3T7zkpbqK0rSbEN69/KKs1RLyysf9SoBAAAA+8iodbPXMLCEo12iB2kHwcfluXLn5LyXkZE1RmEUbrjIzawm+GacbJp60cioXCw8ka7Nubk5ff3rX9/+5NliGwYHB3XkyBF2NgAA6O12n/e6e/euFhYWHrkd5fJcH3vpJYpHQOoNaZap3mgq3+JOxUZSqVBUpVxsP1cpFVUpFpTmudZWCWzrQronEY6cc4rjWPkOp31sNBqamJhghwMAgJ52+/ZtWWsVx/GO1rt88aKOnThBAQlIXf4Ngrxq9ca2N+LykhpJrCCwKhai9V8tKAqfTnnv3Lkja62SJNnxulevXiUkAQCA3m37ea+VlRUVCoUdr3tvelqTx45RRAJSdzPGKgpDJVm67TLWWoVBZ1zO5Z1TkiSyu7yR7a1bt3T48GF2PAAA6En37t2TpF190SxJly9d1OQzhCQCUnd/jaD+vrKyNFKcpsqdk/dORkbGWhXCUIVCJNshUybOz04rzdyeXuPatWs6dOgQ+x4AAPRYs8+rXq8r3MMooNu37+jI0UmKSUDqbkZSFIWKos4ul3dOy/UVebO33qzr169rfHycHQ8AAHrK7Oys3OponL2YunJZRyefoaAEJDxttcV5xWkmY4zOnDmj1157bcvlgiBQGIYKw1BBECiKIoVhqM997nP6/ve/ryRJdOPGDUISAADoGWu9R8YYlUolvfHGGzp69Oim5YwxG9pRa3+/fv26vvjFL2pxcVHXr9/QxJGjFPWA4j5I3XNWa2m5rjRNNTk5qdHR0fYJ+6BHFEXtx5kzZ/T8888rSRJNTU3Jc78mAADQI+bn55WmqYwxev755zeEn0dpR1lr9Yf/8B9WX1+fVhoNXb86RVEJSHia6rVFxUmqiYkJjY+P7zrcnD17VufOnVOtVtOtW7coLAAA6I22VL0uSXruuedUKBR23JZyzqlQKOiTn/ykKpWKrkxNyTlHYQlIeCq81+JSTaOjoxoZGVl9yu/iZXw7JJ05c0aXLl2iFwkAAHS9paUlOed04sSJ9vTeOw03a8sXCgW98847MjbQnZvXKS4BCU9DvLKs/oFBDQ0NbQo7u3XmzBkdPXpUt2/fpsAAAKCrNRoNTU5OKoqiXbel1i9fKBT07rvv6tade3zZTEDCk+bllRurgYGBDc/vpkv3/hP49OnTyvOcExsAAHStOI7b127vpS11f3spiiK9/Mormp+bpcgEJDxZRpVK32N79WPHjsl0yD2eAAAA9luxWNzyvkd5nu8sILnNyxcKBQ2PjFJkAhKebDzaP/QUAQAA7LJdtM3ifNFMQAIAAAAAAhIAAAAAEJAAAAAAgIAEAAAAAAQkAAAAACAgAQAAAAABCQAAAAAISAAAAADQO0JKgE7ViL1+eCmVMUZeknO+ddM2Y9SMuaktcJDdupfr+xfTTTdivHHXURygS03dzBQFkoyRMZK8l7VWN+5mFAcEJOBR3Lib6//4/6rJ+1Ywcs7JuVbjyVrLnamBA+xf/vuG/sVnVtrntTGmfV5by+AGoBv9w39Rl3NO3nsZY9oPay3nPToKRyMAAAAArKIHCQAAAOggzktBWFBftSrnJRmjQhQpCIOO3eBKVFn9h5ecU722JLlcB3HADwEJAAAA6BCJt5pPQ/3l//wva3h4+MC+j29+85v6X/71b2k8Sg9cSGKIHQAAANAhMicZYw50OJKk0dFROS85HbwuJHqQAAAAgA51fekDXZr77oHY1on+kzo/9saBrzkBCQAAAOhQ37j1Gd1ZvrqrdY2M+ooDGiyPqBT1qRiWFdhQgQnkvFfuMyVZU810RbXmvGrxvHKX73pbL859m4AEAAAA4PG5/35xD23c20gTA8c12j+hwfKoAhvKGKty1KdKoV9RUFRgWpM95C5TksdaSWpqpityPtdSc0ELK/d0e/GqGml9h9vaHfeyIyABAAAAB1y1NKSjg6d0qDopuxqAjIz6i0MaKo8psJtnwAtsqEJYUl9xQFmean7lnpx36i8O6Jnh05pfmdathSuaq9+Vl++ZWhKQAAAAgAOqGJZ0cvQFjfUfkSQ57+S8U2BDjVePqhiW5Xwul68fOvdR2Gl1ULX+PVQeUzEoa3r5ppx3qhaHdO7wa1pszunKzA+0kiwTkAAAAAB0ptG+CZ0cfV5hECpzyUcNfBtqrP+IrLFKs3jTevf3Bq3/dxCEGu2f0N2l63KrQ+b6ClW9eORN3V68qpuLl3c87I+ABAAAAOCxMTKaHDqlwwPHJHllefrRz4zVWN8ROZcrdrn0wKFxfttnB8ojmq7d2vD8eHVSpahPV2Z/qNxlBCQAAAAAT9/k0CmN9k8oc+mmnw2UhuXlFWfNRwpFm64t8mshzKoQFjcNqysX+nRy9LymZt/f04x3BCQAAAAAezbaN6HBytiGXqM11gQqBCUlWbMVfDZln4cPjWsv4b2KQVlL+fymZQpBUUcHn9WN+UuPbfIGY57eDWYJSOjcD4BBq5/+8ULrHHWt0885L2Ok3/j3DS0ue4p0QA0PD+vcuXPtMcxrf96+fVvXr1+nQD3g3VeLevG5YMM4dmOMZuad/tXnYwoEdKGfeLekI2NWxkittq+RMdLlG05f/oOUAj2CYlhu9RzlyZY/L0cFJXm8LrTc11vkt41DG55aH3qMsUrzeNNCpaiiwfKoFhozXVdnAhI61sig1X/4H5RljJH3rUZ063Q1+tzXmgSkA+zMmTP6K3/lr6z7wPby3uszn/mMfvmXf5kC9YBPvBDpZz5d3vT8xWsZAalH/Zk/82d06tQpee83fHP8d/7O35FzjgJ1gR9/o6hXzhZWA5KR5GUkff7rCQHpUf//Of6qJqvPabtrh0pRRUEQPij7PDwg3ffcSGlCybqJHtaHrMHiuP7g5he6bqgdAQkAADz9ht+ZM3rppZckbRxa8zSH2QCdpBRV9PqRT2uwNL7tMtbafT9nvPcbvqRY3/Mf5w1dmPm2FhuzBCQAAAAAT0456peRfeAU22sjMvY7IG33mlaBCmFJRqarbiRLQAIAAAA6XGBD3Vm+qv7C8LbLPK7hqNsFpHv1a/LeK7DhljPqEZAAAAAA7DtrAjmf62s3f1tfu/nbD1zOmK0nY1gfcraOO+6+UHTf+g/cPttV9SYgAQAAAB3MGG05rbceEnke7aePsL5/2Ot318RZBCQAAACgg3nvHzKE7WEBZ/cB6ZHuneQJSAAAAAA6ISA95t6dRwk/zjPNNwAAAIAnFZDkleWpAhNouDwhs+4nD17voS+8p3C1EE9vcRNZAhIAAACAx8z5XD915j/VsYFzHbNN8427+vUf/B0CEg7QifSAqR6NMe3H47ipGAAAwEFvR+V5/sA21PrH45pie73+aKijatRXGOrKfU9A6lKzs7NaXFzc0ToDAwN65plnKB4AAOhp3nvdu3dvR20p55xefvnlx7pdzXylo+oUZ3UCEg4G55zSNN3xNxnT09OanJykgAAAoKfdunVLQRAoSZIdrXfxwoc6cfLZx7Zdv3PpVzRaPtIxdVpoThOQcDDcuXNHxhhlWbbjda9cuaKjR49SRAAA0JO892o2mwrDnTeT7zWbeubY8ce2bY10WTfSC+wkAhJ2wrlcSZLs+pqiW7duEZAAAEDPWvuieae9R2suXbygY8dPUEgCEjrF/My00nxv891fuXJFExMTFBMAAPSUtd6jIAh2/Rq379zV0Umu6SYgoUNOaqd6oymvvc1Id/36dQISAADoOTMzM8rzfMvZ63biyuVLj3WoHQhIeERL83OKk9Z1R8ePH9fzzz+/5XLWWgVBoDAMN/z5e7/3e7p69aokaWpqipAEAAB6hvdeKysrMsYoiiK9/PLLGhsb27ScMUZBEGx6TE9P6ytf+YqazaZu3LylI0eZ+IqAhKd8UjstLdflvHT06FFNTk5ueVJLaoeitUcURQrDUK+99pqSJNHU1JSuXr1KQAIAAD1jfn5eSZIoCAK9+OKLqlar2wak9e2otUccx/pDf+gP6TOf+YxWVlZ09coVHd2H26dY2QNTQ2uCrjgWCEhdYmVpUc040eHDh3X8+HF5v/PrkIwxeuONNxTHsa5evapr167p0KFDFBcAAHS95eVlBUGgM2fOqL+/f8e3S3HOaWBgQJ/61Kf02c9+VlevXdPEkb1Pyf32sZ/S1MIPD0QND/UdIyChM3jvNF9b1vDwSPs+RrsJSN57GWP0+uuvK45jXbp0iYAEAAC63sLCgrIs07PPPqv+/v5dtaXWAtXAwIDeffddfeELX9CtG9dULBZ39Dr3T0Q80f+sJvqfZScRkLATzfqyisWSDh8+vCHs7JYxRh//+Mf1+7//+7px4wYFBgAAXWvt2qPjx4+rUqnsui21fvmBgQG98847eu9rv6/Tp3YWbiLjZX2u93/4A00cWbv1ipdzrS+yrbXtR7PZbD/3pOR53r6e3Vor773iOFYYbhxe9+EHP1LRegXGH7hjgoDUBVInTY6Pb/ktxm5PbGOMXn31VX3729/eU9gCAADoZHEca2JiQuVyeU9tqfvbS9VqVa+8+pqmLn6ws8a58RorZPri//xrG56/Od9QHpY0NDTUfvzwG1/R0dFBDVcrTyZMSvq9D25paGhIw8PDGhoaklymC9/7lo4dGt60/HB0MI8Jy2lxsDnvNTAw8Fhe2xij8+fP73mqSwAAgE5VKBS2HAa30/aPd5uX7+/v1+g2k2aBgITHtQON2bfX2qqnaG2mFgAAgK5sS20zPG3HI2i2WTwMI4pMQAIAAAAAAhIAAAAAEJAAAAAAgIAEAAAAAAQkAAAAACAgAQAAAAABCQAAAAAISAAAAADQI7gDKAAAANDlvPftm98659v3tTVGssa0/m6tDKUiIAEAAAAHUSNONL+0pCRuKndOee6Uu1zO+fYyuXO7eu3A2tUAZWSMURhYWbt58Jl3TlmWyzm35c8JSAAAAAD2xEiK00xxkipLU6VZpnpiVKqWNizXjGPVjFOeZfu+DfcHq7T9KzaGoCzPtVRf0e17XsYahUGgKIpUiAIVo4LCMCAgAQAAANidlUZTteW6kiyXy51y7yXvlJvipmWTNFNDTvJOxrR6fcIg2L+eHO+V5rny3K0O0ZNkyhsWcc4rTTPFSSJjjBJjZJuJwsDKSypEoQYHqgQkAAAAADuXOafceWVZtjpkzkneS9YoXV7QfFzXysKMZotFRcbL5bniuNV7ExirLMhVKZf2ZVvSPFecJMpzJ+dbw+mCQFpZyJStLGlp5o5cnqkUWiVp1h6OF1grYyJZa5Q7J5fnBCQAAAAAOzfQV1G1XFYjjhWnqdI0U5ZnCmyoMLCScvm0rjxb0eGRAclI5jFNrRCFoaJwY1xYm+jB+1SKUwVGmhgdVLw6Bs+u9mJFhUilKFSxWJAxRssrDQISAAAAgJ0z1qhSLm3oCSpEkQJjlOaZXO6VO6csb02OkGVOuf9oKNzjEFgra42CIFBoAwWrkzYEgZW8VyNJFIZhe3KHg4yABAAAAHS4KAhUKhYeupzzXlqd0nttMjvnnLyXjPHtGe6cdzJqDYmT9zI2WA1nkjWtkGNtq29qbejcdrIsk+uiWhOQAAAAgC5hjWnd3EjSR/PHBRRmJzWkBAAAAABAQAIAAAAAAhIAAAAAEJAAAAAAgIAEAAAAAAQkAAAAACAgAQAAAAABCQAAAAAISAAAAABAQAIAAAAAAhIAAAAAEJAAAAAAgIAEAAAAAAQkAAAAACAgAQAAAAABCQAAAAAISAAAAABAQAIAAACApyqkBN1pcXFR77333pY/M8Zs+tMYo5GREY2NjXXMe2jEThevZzLGyHkvecl7L8koTjw7GTjA7s05fXg13fT8tds5xQG61M27ufrKaavdIUnyMsbozkxnnvd37tzR/Pz8fc+22iFrbaf17ak8S/XyK6+yowlI6ETeezUaDYXhznbvjRs3Oiog3bjr9Jf/H0vy3st7L+ecnHOSJGtt+wMJB897772nP/tn/+xq4FV7v67tW3S//+m3V/Tr/7bePq+NMe3zmmOgN33nO9/R3Nxc+3hY+4xf+5zAwfff/fqynHPy3rf38do532nn/d27d2WtVZqmO1rv6tQVTRw5ys4mIKHT3Lt3T9575fnOv5G5efOmRkdHKSKeSJBfa/is/UnoBXrXv/7X/3rD58L6BjSfDXjSlpeXFUXRjte7dfs2AYmAhE5sdDYajV1/E3Pt2jUCEgAA6FkzMzPy3itJkl2tP3Xlig5PTFBIAhI6xeLcjLJsb2N5b9++raGhIYoJAAB6ztLS0q56j9bcuHmDgERAQqfw3mu53pDb4+tMTU3p1VdfpaAAAKCnzM3N7an3aM21q1M6dJiQREDCU7eytKDm6gl99OhRnT17dsvlgiCQtVZBECgIAoVhqCAI9Pu///u6deuWkiTR7du3NTw8TFEBAEDPqNVq7TbSxz72sS3bQsaYdhtq7WGt1ezsrL72ta8pTVNdvXaNgERAQidYWKop99KhQ4d0/PhxHT16dNuAFIZh+xFFkcIwVJZl+r3f+z3dunVLV65cISABAICesbi4qDRNZa3VuXPnNDQ0tGVbyhizoR219pCkT33qU/rsZz+r5eW6bt64rtGxcQp7ADGXapdo1JbUiBNVq1U9++yzu5oW1Vqrd955R2NjY1pYWNDdu3cpLAAA6AlLS0vKskwnT57U4ODgjttSzjkNDw/rk5/8pLz3unzpMkUlIOFpWlyqqa+vT8ePH5e0u/tGeO9lrdVbb72l0dFRXbx4kcICAICut7y8rCzL9Mwzz2hgYKAdeHbajpKk4eFhvfvuu1ppNjV95xbFJSDhaUgaddko0pEjRzadpLs6KKzVG2+8oSiKdO/ePQoMAAC6Wq1W06FDh9Tf37/rttT65YeGhvTWW2/p4uUrEjc7JiDhyYuTTIcOHdr2JN1tSHr99dc1NzdHgQEAQNdqNpsaHh5WX1/fhud324O0PiQ9/8KLmp+bpcgHDJM0HHDOeQ0MDj70JN3NiW2t1dmzZ/Xhhx8+lfd24kig//o/75cxRt63ts95L8nov/r787p5z3EAAAfUf/LTFf3Up8obPneMMbpyM9Xf+Ps1CgR0of/Tf1rV889GMqZ1vhtJxki/9+1E//j/13hq21UsFlUqlTY9n+c7u6+k22L5oaEh1ZcW2PkEJDxJ1pp9ey3vvYwxm0LS/c89KYXI6NCI3RCQWk0pozBg3wMH2WDV6vDo5kEMtTonN9CthgesDo8G7YAkeRlJQ9WnO6Bpu3bOjr9s3mb5QqHAzj9o7WtKAAAAAAAEJAAAAAAgIAEAAAAAAQkAAAAACEgAAAAAQEACAAAAAAISAAAAABCQAAAAAICABAAAAAB7E1KCj3hJ8r71p4yM8TIyFAYAAAAgIHW/PM+VpJmyPFfunJzzWotHa4ykwAYKAqswDBRFoQJDxxsAAABAQOoCXlKSpmo2E2Uuf6TlM5crc7niNJVZkaIoUrlUUBgEHEEAAAAAAengWq43lGTp7gOWkZIsVVpLVS4VVS4VOYoAAACALtFTY8UazWRP4ej+oLQSx0qznKMIAAAAICAdPFme7f9rZhlHEQAAAEBAOniicH9HFBoZRVHEUQQAAAAQkA6eYrGgcqG4L1N3W2PUXykpDJjRDgAAAOgWPTVJg5FUKRdVKERqxk0lab5pWu+Hv4ZRsRipUizIMN03AAAAQEA68G86sOqvVOS9lGapstwpz51yl0teWnerWBlrFFirwFqFYagoZGpvAAAAgIDUhYyRClGkApcRAQAAAFCPXYMEAAAAAAQkAAAAACAgAQAAAAABCQAAAAAISAAAAABAQOoAnhIAAAAAB1pICXYnd05pmipJMznnlXvXSpzGyBijMAgURaEKUSRDuQAAAAACUrdaaTTVjBP5LZKP817yXrlzitNU1jY1UKkoCLjBLAAAANDpGGK3Q1meq5FsHY624pxXvdGkcAAAAAABqQsLZq0Cs7OyhSEddQAAAMBB0HMt99w7pUmm3Dk55+Wck+RljJW1krWBotXrh7YMSMaoWq2o2YiVZFlrSN12xbWBSsWCCoWII203+8p5xYlkTGvoovdea+X2zIgBHGhJ6tWMN5/IccrJDXTteZ+0zntjWv9vb7W/Wp8HAAHpKXDOa6XZVJKk2wyPc1IuSZkakgJrVS4WVdwi3ATGqq9SVp+kNM/lnGsFLS8ZY2StURgGsoYOur24fCPX//avzq0GI/9RndXqyTOG6S+Ag+of/PO6/vt/ttw+r1ufnbb9J4Du81//v5fknJP3XmZ1Uqu1c57zHgSkJx2OvNfScr0109wjtqlz57TcaMjLq1QobLtcFAQSEzAAAAAAXaEn4nqWZe1puHcqjlOOEgAAAICA1D2CIJDZ5d2IwpAuXwAAAKBX9MQQu8BaVfsqqjcayt2j9SQZSaVCQZVy8UC+56WlJX3961/f8mf3j/1de4yOjmpkZISzAgAA9Lw7d+5ofn7+/laUJCN7XxtKklye62Mvv0zhCEgHRxQGGqr2KUkzJWmmLHfy3rVnoTOSrLGy1igKQxUL0YG9YNB7r3q9rija2ex59XqdgAQAAHrezMyMrLVK051danH96lWNHz5MAQlIB4lRIYpUWB8cvJfzkg1s18wdPTMzI++9kiTZ8bp37tzR0NAQZwYAAOhZCwsLKhZ3Poroxs0bGjt0iAISkA56ZjKyRl0TjtZ6j4Jdzqw3NTWlV199lTMDAAD0pPn5eRljdvVFsyTdvHFdo2PjFJKAhE5RW5hXlmXKsmzXr3H37l0NDAxQTAAA0HMWFhYUhrtvIl+7dk0jo2MUkoCETuC9V61WU6693UD18uXL9CIBAICes7i4KOfcrnuPJClJpNs3b2pkjJBEQMJTt1JbVCNpXUw4MTGhc+fObbnc2h2rgyDY8Hjvvfd0+/ZtJUmi6elpVatVigoAAHrGwsJCu5304osvbjt51fr201qbam5uTu+9957SNNWVqSsaHh2loAQkPG2LtZpyJ42NjenkyZOanJzc9qQOw7D9iKJIYRjKe6+vfOUrunXrli5evKjXXnuNogIAgJ5Qq9WUZdmGcLRVW8oYs6Edtfaw1urHfuzH9LnPfU615bru3L6l4RFC0kHEXVC7RLNeU6OZqFqt6tSpU/K7mHTCWqu33npLo6OjWlhY0MzMDIUFAAA9YWlpSVmW6cSJExocHNxxW8o5p5GREX3yk5+UJF26dHlX7TEQkLBP5hcXVS6XdezYMUna1QnpvVcQBHrrrbc0PDysCxcuUFgAAND16vW64jjW5ORke6Iq59yO21GSNDw8rLffflvL9bpmp+9SXAISnoakUVcQFnT06NFNJ+muDgpr9eabb8paq9nZWQoMAAC6Wq1W0+HDh9Xf37/rttT65YeGhvT222/r8qXLFPcA4hqkg85IcZbr6NGJbU/S3YakN954Q9/97nef2ls7NGL1H/9UqfV+JDnn2+/rn/5mXXOLdFsfVIcOHWrPlLi2T733un79uj744AMK1AM+/VZRr79YkPet89qY1uybd2edfuW3GhQI6EJ/+o+WdexIKHkva42897LW6kdXMv3OV5Kntl1JkmhsbEx9fX0bnt9tD9L6kHT2+Rc0ffMaO5+AhCfJOa+B6sBDT9LdnNjWWp09e1YffvjhU3lvg/1Wf/Ttoowx8r61fX41Ff7Gv18hIB1gJ0+e1M/93M9tOPa89/rMZz5DQOoRLzwX6Y99srTp+YvXMgJSj/q5n/s5nT59uvUpbz66XcXf/Jt/U3meU6Au8IkXC3rlbEHGrO1jLyMpDMxTDUhRFKlcLm96fqfHndti+aGhIS0vzrPzCUh4kqwx+/Za67/FXR+SzD7+DgAAtnLkyBGdOnVqU0ACHrftjrcdf9m8zfLFYpEiH7T2NSUAAAAAAAISAAAAABCQAAAAAICABAAAAAAEJAAAAAAgIAEAAAAAAQkAAAAACEgAAAAAQEACAAAAAAISAAAAABCQAAAAAICABAAAAAAEJAAAAAAgIAEAAAAAAQkAAAAACEgAAAAAQEACAAAAAAISAAAAABCQAAAAAICABAAAAAAEJAAAAAAgIAEAAAAAAQkAAAAACEgAAAAAQEACAAAAAAISAAAAABCQAAAAAICABAAAAAAEJAAAAAAgIAEAAAAAAQkAAAAACEgAAAAAQEACAAAAAAISAAAAABCQAAAAAKAXhZSgOy0vL+trX/valj/z3st7L2OMjDGy1soYo8OHD2t4eJjiAQCAnnf79m1NT09veM5IMkayxrbbUWsP551eevkVCkdAQify3qtWqymKoh2td/XqVQISAADoebOzswqCQN77jW2s1f/kyrdc7/q1qxo/dJgCEpDQaWZmZuS9V5IkO1737t27GhwcpIgAAKBnzc/Pq1gs7ni9GzduEJAISOg03nvV63UFQbCr9a9cuaJXX32VQgIAgJ4NR8aYXX3RLEk3b1zXyOgYhSQgoVPUFueV57nyPN/1a9y7d0/VapViAgCAnrOwsLDjyxTWu3btGgGJgIRO4b3X0lJNTmZPr3P58mW98goXGQIAgN4LR845xXG869eIY+nWzRuEJAISOsFKbVHNJJUkjY6O6rnnnttyOWOMgiCQtVZBELT//gd/8AeanZ1VkiSamZlRf38/RQUAAD1jcXGxPbvv2bNnt70ue63ttNaWstZqaWlJ3/rWt+Sc09TUFAGJgIROsFSrKXPS4OCgnnvuOZ0+fXrbkzoMw/YjiiKFYahSqaQvfOELmpub06VLl+hFAgAAPWN5eVlZlrXD0cTEhCYnJzctZ4zZ0I5ae0xNTalYLOpLX/qSlmrLunP7loaGRyjsAcSNYrtEs17TSjNRqVTS2bNnZczOh9mFYahPfepT6u/v19zcnGZmZigsAADoCfPz80rTVM8884zGx8c3TfH9MM45TUxM6M0331Se57p8+TJFJSDhaVpYXFShUNCzzz4rY8yOT2qpdQ1TFEX65Cc/qb6+Pl28eJHCAgCArreysqIsyzQxMaGRkZF24NlpO0qSJiYm9Prrr2thcUmz03cpLgEJT0PSqMubQJOTk+2eo90EpDVRFOmdd95RmqaanZ2lwAAAoKstLi5qdHRUQ0NDmwLPTgOSJB0+fFif+MQn+LKZgISnpRHHmpiYkLV21yf1diHp9u3bFBgAAHStOI5VrVY1MDCw4fnd9iCtD0knT53W/CyXLBCQ8EQ55zQwOLzpmqPdDrFbLwxDnTt3bk/3VAIAAOhkYRhuOXPvTgOS26K9dPjwYRXLFYpMQMIT3YGrU1Huh61CVRRFCoKAQgMAgK60XTtnpwFJ23w5XakQkAhIAAAAAEBAAgAAAAACEgAAAAAQkAAAAACAgAQAAAAABCQAAAAAICABAAAAAAEJAAAAAAhIAAAAANBjQkqATlVveH3jh6mk1s2pWw8nyWgl9hToAEuSRLVabXXf+vaj2WxSnB4xdTPT176XyK+787wxRrfu5RQH6FIfTmVKUi8jI2MkYyTJ6PLNjOKAgAQ8ilvTuf7mf1drN56dc3LOSZKstTKtT1YcQN/+9rf1F//iX2w3jtf2qzFG1tKx3Qt+64tN/eYXGu3zem3fcwz0rq9+9auamppqHw9rn/Frnw84+P6H/7ku55y89+19vHbOc96DgAQAALDO5z73ufYXYpI2NKD5QgzAk0RcBwAAAAACEgAAAAAQkAAAAACAgAQAAAAABCQAAAAAICABAAAAAAEJAAAAAAhIAAAAAEBAAgAAAAACEgAAAAAQkAAAAACAgAQAAAAABCQAAAAAICABAAAAAAEJAAAAAAhIAAAAAEBAAgAAAAACEgAAAAAQkAAAAACgI4SUAJ1qdNDqp3+8IEnyzstLcs7LGOk3/n1Di8ueIgEH1LuvFvXic4G8/+g8NsZoZt7pX30+pkBAF/qJd0s6MmZljGSMJBkZI12+4fTlP0gpEAhIwMOMDFr9h/9BWcYYeS953wpJktHnvtYkIAEH2CdeiPQzny5vev7itYyABHSpH3+jqFfOFlYDkpHkZSR9/usJAQkdhSF2AAAAAEBAAgAAAICNGGLXpVZWVvStb31ry5855yS1urette0/x8fHVa1WKR4AAOh59+7d0/z8/IbnjFrXT1lr222otXZUlmV6/oUXKRwBCZ1qcXFRhUJhR+vU63W99NJLFA8AAPS0hYUFGWOUZdmO1rt966aGR0YpIAEJnWZ2dlaSlCTJjtbz3mt2dlZ9fX0UEQAA9KyZmRmVSqUdr3ft2nUCEgEJnahWqykIgl2te/nyZXqRAABAz1paWpIxRnG8uxk179y+rcGhIQpJQELHhKPFeeV5rjzPd7V+mqaam5tTuVymmAAAoOfMzs4qiqJdrz91dUqvDL1KIQlI6BRLSzU5mT29xsWLF+lFAgAAPWd5eVne+x1fprBekiS6e+cOvUgEJHSCxvKSmknrRmuHDh3S6dOnt1xubeaVIAjaD2utvvnNb+revXtK01QLCwu7GnsLAABwUM3OzioIAhljdP78eQ0PD2+53Pr209qfCwsL+sY3vqE8zzU1dUWvvPoaBSUg4WlbXFpS5qSRkRGdPHlSJ06c2PakDsOw/YiiSGEYKggC/e7v/q6mp6d14cIFepEAAEDPWFlZUZ7ncs7p/PnzGh8f1+Tk5KbljDEb2lFrj6mpKb377rv64he/qIXFJc3cu6f+gQEKewBxo9gukTTqqjdiVSoVnTp1alevEQSB3n33XQ0MDGh2dlaLi4sUFgAA9IT5+XklSaJjx45pZGRE3vsdre+c0/j4uN5++23lea5Lly4+tffivVfuvJxz8uxaAlKvWlhcVKlU0okTJ2SM2fFJvXYyhWHYDkkXLlygsAAAoOs1m00lSaKjR49qaPXaIefcjttRkjQ2NqY333xT84tLWpibefxhSFKW5VppxFqs1TW3WNPcUk0LtZrma8uaW1zS/FJNtfqK4jiRc0QmAlIPyOKGvAl09OjRTSfpbgRBoLfeektZlmlpaYkCAwCArra0tKTx8XENrBsSt9O21Prlx8bG9MYbb+jypcuPdbvTLNdSra7Fel2NJFbmcvkt+oyc90qyTMvNphZqy6o3m3tqKxKQ0PGacaxDhw7JGLMvAWktJL3++uu6c+cOBQYAAF0rSRL19/erv79/Y6jYZQ/SmtHRUZ049ZyWFhcey3avNGLV6ivK3M5u7eLl1YwTLdTqSrOcA4CA1H2cpP6BoQ3haLcB6f51wjDUc889R5EBAEDXiqJIlUplcxtrhwHJbRFURkdHVSzt/70lVxpNNZJ4y96iR95e71Sr15XlhCQCEjvwkQOS1OpJAgAA6Fb3f8m824Ckba7tKRaL+7q9eZ6rsYf7NG1o+0mqNxpM5EBAAgAAAA6mRpzs6+tluVPGUDsCEgAAAHAQ5Tvt2XqU12SYHQEJAAAAOIi2GxK4p0BgDYUlIAEAAAAHTyEM9zdwySgKueacgAQAAAAcxIBUKCgw+9eELxULMoZIQEACAAAADmLj3Uj9fRXZfQg1hShUpVSkqAQkAAAA4OAKA6vB/oqiXd6OxcioUiyqusX9nyCFlAAAAAA4WKy1qvb3Kc0yxc1EaZ499H5G1lgVokDlYlHW0k9CQAIAAAC6iFFr0oZCfyjnvDKXK89yOe/kV9OSsUahsQqCQEEYiPnqCEgAAABA17PWqGBDKaR5v+daUgIAAAAAICABAAAAAAEJAAAAAAhIAAAAAEBAAgAAAICHY5oLdKxb07n+r/99TZLkvJd3Xs57yUt3Zx0FAg6w3/pCQ9/4QSLvvZxzMsbIGKOVJrUButWv/OaKBvob8s7JGCsZyRqj2UVPcUBAAh5FveH1te+l8t63G1HOtYKRtVbGMJM/cFBN3cp15WbWPq+NMe3zmpsXAt3pR1dSOefkvW9/KbJ2znPeo5NwNAIAAAAAAQkAAAAANmKIHQAAANDDsixTmudyrnU9mJFREASKokC2By9pICABAAAAPShJM600msr91pNfmYZRqRCpUipKPRSUCEgAAABAj2k0Y63E8QOX8fJqJInSPNdgX6VnQhLXIAEAAAA9xDn30HC0XpbnaiZJz9SHgAQAAAD0kMzt/H6SaZYTkAAAAAB0YQAwO48AgQ0ISAAAAAA6m3NOWZYrzXLlzsk/wjphYFWMokcPDNaqVCz0TE2ZpAEAAAA4QHLn1IwTJWkq5zdGIiMpCiMVi5EK4fZN/b5KWbZh1ExS+QfEqigIWstaZrEDAAAA0EG8pGYzUSOOtw01XlKSpUqyVIUwVH+lLLPF7HNGUqVcUqlYUJykynIn53N5b2SNFASBClGkMAzUa3dCIiABAAAAB0CjGauxg9nnkixTrb6igf7KaiTazFqrcqlIcdfXhBIAAAAAnc05r+YOwtGaNM8VxykFJCABAAAA3SPL80eagGErSZZRQAISAAAA0EW83/2qVI+ABAAAAHSTMNz91AFRGFBAAhIAAADQRY12a1Qq7PxeRIENVCwwCcOOwiglAAAAADpfX7kkSWomyaM19K1Vta8sa6gdAQmq1Wr65je/ueXPnHMyxmx6jI2NaWhoqGPew7GJQL/4Fyoyxsh7yXsv770ko//bP1jQnVlG1B5UJ0+e1E/8xE+0/722b3/4wx/qK1/5CgXqAf/RH6voj75dXD2nP3LtTq7/+z9cpkBAF/pLf7ZfZ0+GrXZH69Nf1lq99/1Uv/qvGx23vXfu3NH8/PyG58zqf6yxG9pQ1lplWaYXP/axJxKSilGoRpwozbItry8KbaBiMVKxUBDZiICEdQGpsMNu2Hq93lEBqVQwOvVMuDEgrX48FQtGXHJ4cB06dEh/5I/8kU0BKc9zAlKPGB+xeu7YVv8L4n/lveqv//W/rpdffrl1FKy7qeWf+3N/TnmeU6AucORQoFPPRDJmbR97GUlTtzpv/87NzckYozTd2fTYN2/c0OjY2ONvwIehqmEoL9+6wWvuJBlZ2xpSZ+kyIiBho5mZGUlS8ojdr+sbqdPT06pWqxQRAPBEWWvbwWh9QAKehvn5+R1/0SxJ129cfyIBaY2RURQEUsAkDAQkPFCtVtv1TCeXL1/WK6+8QhEBAEBPWlxclPd+x180r7l184aGR0YpJAEJHROOFubknNv1SZ2mqWZmZtTX10cxAQBAz5mbm1MURbte/+q1awQkAhI6yVKtJrfH2dsvXbrUHgcOAADQM+2opSVJ2vUXzWvr3r51S8MjIxSUgISnbaW2qEbcuphwfHxcp0+f3nI5a62stQqCoP1nEAT65je/qenpaSVJotnZWXqRAABAT5mfn2+3k86dO7ft5FX3t6GstVpYWNC3vvUtZVmmqakrBCQCEjrB0lJNqfMaHh7WqVOn9Oyzz257Uodh2H5EUdT+80tf+pKmp6d18eJFrkUCAAA9o16vK89z5Xmu559/XocOHdLk5OSm5YwxG9pRa4+pqSm9++67+sIXvqDFpZru3bmtgaFhCnsAWUrQHeKVZdWbscrl8rY9Rw8TBIE++clPanBwUPPz85qbm6OwAACgJywsLChJEh0/flwjIyOb7tP2MM45jY+P6+2331ae57p46RJFJSDhqZ7Ui0sqlUo6efLk6n2Ddn6PIO+9wjDUu+++q4GBAV24cIHCAgCArtdoNJSmqY4cOdIeVuec23E7Smpd5vDWW29pcamm+dlpiktAwtOQxQ3JBjp69Gj73hG7CUhrgiDQW2+9Je+9FhYWKDAAAOhqS0tLGhsb0+Dg4KbAs9OAJEljY2N68803dekivUgEJDwVjWasw4cPb7ix3l4C0lpIev3113Xnzh0KDAAAulaSJKpWq+rv79/w/G57kNaMjo7q2dNntDA/S5EJSHiSvPfqHxh86Em6mxM7DEOdPn16z2ELAACgUwVBoEqlsun5nQYkl+ebnhsdHVWpzKzABCQ8UcaYDT1Hew1b9wvDcN9eHwAAoBMD0paBZ4cBSdt8oVwqlSgyAQkAAAAACEgAAAAAQEACAAAAAAISAAAAABCQAAAAAICABAAAAAAEJAAAAAAgIAEAAAAAAQkAAAAACEgAAAAAQEACAAAAAAISAAAAAICABAAAAAAEJAAAAAAgIAEAAAAAAQkAAAAACEgAAAAAQEACAAAAgB0IKQEAAADQe3LnlKSpXO7kV58LAqswCBWFAQEJAAAAQA8EozxXvdFUmuebf5hKUqzAWvWVS4rC3osLDLEDAAAAeigcLdVXtg5H65dzTrV6Q3GSEJAAAAAAdKflRlPO+0da1strpRnLy/dUjQhIAAAAQI/IHtJzdD/nvbLMEZAAAAAAdGHj3+ys+W9kZG1vRQYCEgAAANAjKqXijpYvFkIF1vRUjZjFDgAAAOgRxUIkL69GM37gtUhGUrFYUKVU6rkaEZAAAACAHlIqFFSMIjWTRGmWK3dO3nkZYxRYozAMVCoUem5oHQEJAAAA6FHGGJWLRZWL1OJ+XIMEAAAAAAQkAAAAACAgAQAAAAABCQAAAAAISAAAAADwCJjFDgAAAMC2cu/kcycvKQisrOnuPhYCEgAAAIBNnPNabjSUZbm8WjeVNTKKgkCVvpKCLg1KBKQuVa/X9d57721zsDtZa2WMkTGm/ffDhw9rYGCA4gEAgJ53584dzczMbHo+MEbGmk3tKOecXvzYS91TAGNUqy8rc27D015eSZ4pX25oqNpHQMLBsby8rDAMH/CNgNv03NTUlF5++WWKBwAAetr8/LystfLeb/pZ5r3ktl7v1s0bGhkd64oaOOc3haP1cpfLeckaAhIOgNnZWeV5rjzPd7Se917T09OqVqsUEQAA9HRbqlgs7ni969evH5iA5HKn3DkZaxTYQOa+oGONVCwUFCfJlusXC1FXhiMCUpeq1WoKgmBX6165coVeJAAA0LMWFxclSck2weBhbt+6paHh4Y58b15SnCRqNhPl/qPeISOjYiFSpVSQWXddUX+lrDCwSpJUWd5aPgysClGkUrHQtccAAanbwtHC/K56j9akaarZ2VlVKhWKCQAAes7c3JyiKNr1+levTnVsQGo0YjWSeIvg5NVMEqVZpoH+/o96hrxXqVBQqVDoqWOAgNRllmpLcnu8vdWlS5f00ksvUUwAANBTarWapN33Hq2te/fOHQ0ODXXc+2s+5H3lzilJk54LRASkLtZYXlIzySRJlUpFExMTWy53/6wr1lpZa3Xp0iU1m812L1JfXx9FBQAAPWNubq59mcLExMS2I2rWt6HW/lxZWdHU1JSk1iULr772Wke9N7/vCxKQcAAsLtWU5k6lUknnzp3T+fPnt1wuCAKFYdh+RFGkMAz1ne98R1/4whfUaDR06dIlrkUCAAA9o16vK89zZVmmyclJnT17VpOTk5uWM8ZsaEetPaamplQul/Xtb39bcRxr+t5dVQcGO+b9GUmlQmHLIXbtNqKxKhainj8WLKdDd4hXllVvNGWM0blz53Y1drZarepTn/qUgiDQ3Nyc5ufnKSwAAOgJ8/PziuNYIyMjevbZZ7ec4vtBnHN6/vnn9fzzzytJEl26eLHj3mOlUlJfqSRr7abwVIwiDfRXZIzp+WOBgNQllpZaY2ZPnz6tYrG445Naak3zPTAwoB/7sR+TMUYXLlygsAAAoOs1Gg2laarBwUEdO3asHXh22o6SpPPnz+v8+fOamZvX/Ox0Z71R71UqFjRc7ddQf5+qlbIG+/o0VK2qv1LeFJwISDiwsrihZprp+PHj7Z6j3QSkNdVqVe+++66WlpboRQIAAF1vYWFBfX19Onr06KbAs9OAJElnz57VuXPndLGDv2wOgkCFKFIYBrKWXiMCUpep1xs6cuTIhmF1ewlIayHp7bff1tWrVykwAADoWnEcq1gs6tChQxue320P0pozZ85oaHRci/OzFPmAYZKGAy7Pc/WPDigMwweepLs5sfv7+3Xq1CldunTpqby32UWn/+l3Gq1tc15eknNektdCjSlWDrLFxUV997vf3XDMee918+ZNitMjvv79RCsNJ++9vPft2TVnFzm3gW71+fdivX85lbxf7bEwMka6ctM99W0bGRnZ9NxOA5Jzm+9BeebMGX34w++x8wlIeJKCIFAQ7M9uXGukrDcwMKDCU5oLf27R6Z/+ZqPdgHLOtT+s1qbVxMH0wQcf6G//7b/dDkhr+3VtqlR0v9//bqKvfidun9f3T5eL3vMbv/Eb+tznPrfhOWPMrm98js7zma825Zzb8KXI+tuNPC3FYnGbwLPD4Oa2/oJneGRUfP23u3YpAQkAAPSs999/v/2F2Fo4Wv8AgCeFr+kAAAAAgIAEAAAAAAQkAAAAACAgAQAAAAABCQAAAAAeAbPYAQAAAB1gKQv0zLNn9JN//KdWpz5fP9V1p8/m2NrW5dqyfv3X/r8q5A0VrTuQ+4GABAAAAHSAhrN69rnTGh0dPbDvYXh4RIMjY1q4e0PFAzpWjYAEAAAAdBjvva4tfqDUxR2/rVEQabJ6VqHtjmhBQAIAAAA6zPWlD/RvLv7jPQaXgvoKAypGFRWCgqwJJEnOO6V5ojhb0UpSU5w197y9nz75H+ns2CcISAAAAAD2X5LvvOcosKHG+o9qqDymwfKI+goDMsaoGJZViioKbCBrAuU+V5anaqZ1JXmsZlrXYmNOi40ZTddu7ep3J67ZNbUnIAEAAAAHWF9hQIcHjuno4EmFQUGSZI3VQGlYA+VRBTbYcj3vpTRPtLAyrUJQ1nj/pJ4bf0kzy7d1e3FKCysz8hsmiugNBCR0rErJ6PlnA0lGzjt55+V96zT9wcVMcUqNgIPqxNFQh0eMvPdyzskYI2OMVprSDy/nFAjoQmdPRqpWJO+cjLWrjXijuSWvq7c9BdplMDo59ryGK+Pt5zKXqhiWdaj6jAITyLlczm39uboWfoYqYyoX+nSvdlO5yzVcOaThyiHVmvO6NPN91eMlAhLQCSYPBfql/7IqY4y8VzscSUa/8EszunrbUSTggPqTP17Sz3y6vOn5i9cy/fwvLVAgoAv9hT9V0StnCzJGMsZI8jKSPv/1RH/3V+oUaAeMMZocPKXJ4VMyssryj741rhSqGu2bkHOZnLJtX+P+niFrrMb7j+he7UZriJ2XylGfXjzypu4uXdeNhYvKXW98gUVAAgAAAA5K491GOjX+ogZKI6uB5aPQUghLGiiPKN3iGiJ//7/81ksMlsd0t3ZDufsoXI32H1GlUNXlme/vy4QOBCQAAAAA+xaOKlG/sjzZ8DNjjAaKR5Tlsby/P/r4B8al+/UVBjRXv7vhuSgo6rnxl3R55gdqpisEJAAAAABPjzFGx0bOqBAUlbnNF2L3FQeV+0xZttWwunWByG8ORxuf8gqMlTVmy9nsjg2f1pWZ97fcBgISAAAAgCdivH9SxbC8bTAJbagka8r5h014sUVAaj/n24EpDCKtpMubVjWymhg4rpsLl7t2hjsCEgAAANDBimFZRwdPKdDW03UHNlAp6G9lGON3FI5agei+540UFYpyud9yuXLUr4XGjJbjRQISAAAAgCfr+cNv6A8f/9Pb/twYI7s6dfp+yvPtZ62LTEHfvPH5ruxFIiABAAAAHSqwofqiwc29PPdxbv9vf/Kg31kK+1QIi105qx0BCQAAAOhQxbCklWRpV0HG+7317jxo/eVkSVFAQAIAAADwBFkT6NriB/qtD/4/Cm205TLGGFlz//VJflPI8dvc+2jrf0neO2113VLmUi3GszLGdmXNCUgAAABAh/LeK3Op5hp3dr3+Q5bY9U+dzwlIAAAAAJ6c3GeS21W2eYQJFB4Sjh76+q4ra05AAgAAADo1ILnsAb1AfpfR5+Hp51Fmp9vrNU4EJAAAAAA7DkjOuB1HoIdnlz0GJN+9NScgAQAAAB3KeafR8mH98ef+ggphuSO2Kcmb+rcX/gfNNm4RkAAAAAA8WeOVZ1QtjnTM9hSDsib6j3dtQLIccgAAAEDnyl3nzRaXd+kMdhI9SAAAAEBHu7r4A71387cVBcWO2J40T3Rl4fsEJAAAAABPXpLH+ubtz1KIJ4QhdgAAAABAQAIAAAAAAhIAAAAAbIlrkLpUkiR6//33t/25MUZBEMha2/6zr69PxWKR4gEAgJ63sLCg739/40QERpK1RtZubENZa9VsrKivWqVwBCR0qrm5ORUKhR2tE0WRzp8/T/EAAEBPazQaSpJEWZY98jreew0OzatU3p+buRpzsGpmDtoGE5B6S61Wk9TqRdqJJElUr9cVBAFFBAAAPev27du7GlVz6dJFvfixl/ZlGyb6n9Vk9bSSvNH5gcIWNFk9Q0BC55qbm1MY7m7XXrhwgV4kAADQs5rNprz3O/6iWZLi2GthYV7FYmnP29EXDehPnvvP2CEEJOz5pF6pyzm3q5NaavUiraysdFU3KQAAwKO6e/euoija9fqXL13S8y+8uLuGufGan58/0PVL01S1Wk2B8QQkdIb5+Tnlfm/h5sKFCzp79izFBAAAPSWOY+V5Lufcrl8jSRItLiyoWNp5L9JolOvKt7+iX7n8A5kgkJdRM0k1vZxqYGCg/VhZXtT0zes6PjH2xGpzfXpRsbcbtuPyj36g/lKoaqWsRhzLyqvZaKgUNxQEBCR0gKTZUCNOJUnlclmHDh3acjljjIwxstZu+PPq1atqNpuamZnRsWPH6EUCAAA95d69e7K2dRecQ4cOqbzNhAv3t6GMMWo2m7p27Zqk1rVIL7z4sV1sgVdgpJXaQvuZlTjT7FKqPM/lvW/9rtqSlhdmlQ8UnlhtlhfmVMttOzxaa1VbnFOURiq7plbqK+1lgwPehCQgdZHFhXkluVepVNL58+d17ty5LZcLgkBhGLYfURQpDEN95zvf0Re/+EU1m016kQAAQE9JkkRpmsoYo6NHj+rcuXOanJzctJwxZkM7au0xNTWlSqWi7373u5qdm1dtaUlRoUBhDyBuFNslsiTWciOWMUZnz57d1djZarWqT33qU7LW6t69e2o2mxQWAAD0hNnZWaVpquHhYZ08eVLe72yImPdezz//vM6fP684jnXp0gWKSkDC07S0uCBJevbZZ1UoFHY9drZareqTn/yknHO6cIETGwAAdL8sy5QkiQYGBvTMM8+0A89OA5IknTt3TmfPntXtO/e0Uq9R3AOIIXZdwGWp6s1Ep0+fbt8cdqcn9fp1qtWq3nnnHX3pS1/SsWPHntr7mlt0+o3PtnqxnPMb/lxc9ux44AD71g8Tpanf8NljjNHMgqM4QJf63W/GunQtl7R2zrfO+0vX86e+bXNzcxoYGNCRI0c+al/t8Mvm9cufPXtWzWZTVy5d1KFDh9n5BCQ8aSv1uo4cObJhWN1uAtJ61WpVb775pi5duvTU3tfsotM/+o0Vee/lvZdzbsOFgUwiARxcv/ftRF/+g7h9Xt8/cQyA7vNvv9yUc6490cD6SaOe5nmf57lKpZLGx8c3PL/bHqT1Iel73/ueVurL7PwDhv8LHXDOeZX7+zfdGHYvPUjrQ9LRo0f3HLYAAAA6ty3lNDIysuXzO32d+505c0ZJklJkAhKe6A60RkGwPx2BWwWhgYEBemoAAEDX2m5iqzzf4dC/bQLV0PAwRSYgAQAAAAABCQAAAAAISAAAAADQDZjFDgAAADhAnPdK0kxL9RW5PFfuvPI8l1u9ntzlTmvTqedu7ZYKkvP3XSdlpMC0+kuMMbJrl51bI2usJK/ABgoCqzhNJVskIAEAAAB4wgEod4rTVGmWq95MJG0MJnGSaLG2rLvh3ifSetQ59hrNXEFl43YsLi2rsZyrXikpdU5hEKgQRSpEkQ7yHF8EJAAAAOAp896rvtJUvdFQluVy3sk7r8RLKm4MJs55pVmmJM1kjBQ8pntJObd6H0rvlTuv4L6f584pThMtyyvNcllrJBkZIxWLBfWXyyoWCwQkAAAAADuTZpmWlpeV504rzVhubWicjAIbq1mvacnnypOmlhcX5J3Tcn2lvb4NrPrLpU33xtxdWJOWV1aUZZnW7gLjTCiXNLVSW5TyVGlzRVkay6eJXJYpy52sMSoUQhWiSM1mojTNNTE+QkACAAAAsDOFKNLhsVHVm02Vy0XFSSaXO3l5edeUbabK0poWF1vLHx4dlDVGRkbWmn29b6UxUrWvIqnVS+S9X300pUZTzca8mrPSSKUoY4ryvtWDZIxRYK0KhUilYlHlUuFA7gsCEgAAANABgsBqoK8irYaTLMuUZrmyPFdoA9nAyOVeuXPK81z5Njen3ddtWjd0rzWcL2gN6QusAhsoDK2sMWqmqaIgVBAc/EmyCUgAAABAJzbUw7A9ZK6vVFLpvut5vLQ6i51Tljs515q9zvvWNU1Sa8a79t+dl1+d3U5SqwdqtefJGtueWMGuTWdnrEJr1wWircNPlmXSuuF+BCTgMYlCaXw4aHXpyss7u3riS/fmvHJHjYCDaqhq1V8xrYt/nWtNL2ut0kyanvcUCOhCY0NWhcjKOS9jTbtx3kykhRr12Q0jKQgCBUGgQkQ9CEjoeiePhvp7v1iVMab9TYhf/Tj4hV+a0dXbJKSD6uMf/7j+0l/6S+1/r41t/uxnP6tf+7Vfo0A94M/9dEU/8+nypucvXsv087+0QIF60Pnz5zU4OLix8WeM3nvvPYrTJf7an6/qlbMFGaPVXgsvI+nzX0/0d3+lToFAQALQwx88YahyubwpIBWLRYoD9Kg//af/tF566aV2MFrzsz/7s8rznAIBeGIsJQAAAAAAAhIAAAAAEJAAAAAAgIAEAAAAAAQkAAAAACAgAQAAAAABCQAAAAAISAAAAABAQAIAAAAAAhIAAAAAEJAAAAAAgIAEAAAAAAQkAAAAACAgAQAAAAABCQAAAAAISAAAAABAQAIAAAAAAhIAAAAAEJAAAAAAgIAEAAAAAAQkAAAAAOg8ISUAAAAAOoP3Uj23OnP+BU1MPiMnI3nJGCPTqdssyXvf/reR0wc/+J7mpu+obB0BCZ0hyzK9//7725x4XtZaBUGw4c/+/n4VCgWKBwAAet78/Ly+//3vb4oCgbGywUftp7W21Ep9RX3V6p5/b9NZ1V2oP/Ezf0ZBEBzY+o1PTOpXf/VXVSw4WXOwtp2A1KVmZmZ2HHbCMNTzzz9P8QAAQE9rNBpK01S1Wu2R1/Hea3hxQcViaU+/26vVW3SQw5Gk9vZ7mdV3RUDCU7S8vCzvvZIk2dF6SZJoZWVF1nJpGgAA6F23b99WsVjc8XqXLl7UCy9+bF+35Xev/oa+P/3V/QktNmw9TCAvryxPlbl037b1SP+z+t+c/y8O/P4nIHWh2dlZheHudu2HH36o8+fPU0QAANCTms2mjDE7/qJZkuI41tLioqJ9vGRheuXmrtYrRRUNlsc0WBrRYHlE5UK/oqCg0EYKbCgvr9zlSrKmmmldS815LTZmtdiYVT1Z2nBN0SNva/16VxwDBKQuEzdWlOe5nNvdBXFJkqjRaFBIAADQk+7evasoina9/sWLF/T8Cy8+nYa9jXSo+owmh06pvzTYfr6/OKi+4qDKYUXGbLwgyHmnRlLXcryglWS51R7Mm7qzdE23Fq6okdZ77hggIHWZhfk5ZX5vV8J9+OGHOnv2LMUEAAA9JUkSOed21Xu0Jk1T1ZaW9rUX6WGKYUnHR87pUPUZBbZ17U/uMhXDskb7JlQIS+3n7uclFcKSRsIJ9RVXNLN8W9YEOjr4rI4MnND8yrSmZn+kerJEQMLBk8ZNrcSpvPeKokjDw8NbLmeM2fJx584dZVmmmZkZHT9+nIICAICecu/evXYPy+Dg4LbXIW3VjkqSRNPT05KkS5cu6vzzLzz27TUyOjJ4UsdHzsiaQN47ZXlrFFF/cVAjfYdljFGax+0wtCEa3TeKzppAY/1HNLN8u92bVC0N62OTb+nO4jXdWLio3OUEJBwci/NzivNWODp//rxefHHr7t0gCBSGYfsRRZHCMNQ3vvEN/e7v/q6SJKEXCQAA9JQkSZRlmbz3Ghsb08svv6zJycktw9H6dtTaY2pqSt/5znd08eJFTc/M6plaTeEehuo9tBFvI50+9JIGSiNy3sn5jy6vqBSqqpaGleYP6gnbfI3R2nVHQ+UxJXmsZrrS/tl4dVID5RFdmv5eOzx1K6Yr6xJ5mmi5mch7rzNnzqhcLu/4NUZGRvTOO+/IOad79+6p2WxSWAAA0BNmZ2cVx7H6+vp05syZHU9S4L3Xxz/+cR0/flxxHOvihQuPbVsLYUnnDr+mctSvNE82PCSpWhxSksf3PZrtR5w3Feex4qy54bF+2WpxSN7nyvKk/QhMoNPjL6taGiIgofMtLS4oyzKdPHlSlUpl15M0jI2N6Z133lGWZbp48SKFBQAAXS9NU8VxrEqlolOnTskYs6uAZIzRq6++qmPHjun2nTtqruz/BAehjfTs6AuyNlDm0k2PSqHaCjlZc8tHnDaVpE0laWPj8+1HQ3HWVOZSlaLKptfPfa5jw2dUKVS79nhgiF0XcFmqeiPWs6dOtXuOdjM149o6o6OjeuONN/TVr35Vx44do8AAAKCrLSwsqFwu65lnnvmofbXDL5vXljfG6OWXX1az2dTlSxc1Pj6+b9tpZDQ5dErWWGX55vsXRUFBRlKc3T8jsd/ib5sagvet4RXYSM7nG4bvrS12dPBZTc2+v6/3USIgYd/Ul5c1fujwhgsJdxOQ1hsdHdVrr72my5cvU2AAANC18jxXEASamJjYMAX2bnqQ2kFmNSR94xtfV7Oxsm/bOlgZUyEsbRtKimFRcdbY6uqirTLQVu9i0/sxssrakzxsfIGx/qO6s3SVgITO4p1Tqa9v0ywre+lBWh+S4jjWhx9+SKEBAEBXyrJMR48e3Xx/oF32IK0PSR/72Ev60fe/uy/baY3VW8/8pI4Pntu+YR9Em97HI7YCt+1Zcs5tO3PdTP2GfvvCr26YzIGAhKfOWKso2p959tfGzq43MjIia7lUDQAAdKftpvLO8x1OZ71FoDLGaGx8XHcuv7/n7awUqjpafU6VaGDbdpy1dlcB6YFfrNvtw+KR6mlVClUCEgAAAIAnHOTCsnKfP3SU0F4vs9jqNbZ7Te8zhTba1aQWBCQAAAAAu2JkZIzVt259VscGzmm7PiJrgw0/8+0//YPS0IPDkiTvt+5BulO/qsylCm30kHsuEZAAAAAA7BNrrXKX6ubSRd1curgpwKyPUpvizUMD0N56frz3MjJdVW8CEgAAANDhtpq5bq/D2h4ajvyjrb/XkEVAAgAAAPDInHdb3vdoP3p/dpuO/Ibty7uq3gQkAAAAoIN57zf1ID323qOHBSS//u+uq+pNQAIAAAA6XJanmhw4rWMDZztmSNu9+nVdnv9e19WagAQAAAB0OC+vd4/9tEbLRzpmm+J8pSsDEncABQAAAA5Ew72zmu5GQVfWmR4kAAAA4AC4NP89nbWd03y/WbtEQAIAAADwdHz91u/o67d+h0I8ZgyxAwAAAAACEgAAAAAQkAAAAACAgAQAAAAABCQAAAAAICABAAAAB1d/YejAbGu1ONIVNWeabwAAAKBD/dFT/7HeTn7qQGxrXzRAQAIAAACwf4yRvPfK81xBEMgaq4Hi6IF7H1mWtd8PAQkAAADArpSskwsy/ea/+HWNjI3LeSMZqdGIZcNQ5XJZpVJJ5XJZ16auqFQqqhBFT2z7Fmp1lcvl9nY453Tn1k1Vq/2tQCTJGq8rFz7UUJTLyhOQAAAAAOyOkdQXON29/EPdvfzR8zfnG8rDkoaGhtqPH37jKzo6OqjhauWJbJuX9Hsf3NLQ0JCGh4c1NDQkuUwXvvctHTs0vEXYO5j7gEkaAAAAAICABAAAAAAbMcQOHevanVz/5X+zJHkv55wkKXdO8tLNe44CHWBXrlzRP/yH/1Dee3nfGpvsvdfNmzcpTo/4tX+zov/lSw351fPbGCNrrZKU2gDd6u//j8sqFSXvnIyxMtbISFppGooDAhLwKOLE68qNrN2Ids61g5K1VsbwgXpQTU9P63Of+1w7HK3t17VGMrrf7ILTzPxH5/XavucY6F1/62/9LUlqfy4YY9qf83zed4c7M7mcc/Let/fv2jnPeQ8CEgAAwH3W9yqvIRwBeNKI6wAAAABAQAIAAAAAAhIAAAAAEJAAAAAAgIAEAAAAAI+ga2axc14Ko6Iq/f1yXgoqZXX6vDfFsKQgdzKSXJ6pXluSlZfkOTIBAADwSLz3ynKnPG9Npe68a7ePte6WGmstTOe8/Oq/jNSeZt3eN73+2iSSgQ1a07EHvdG30hUBqemsln1Rf/W/+Kvq6+s7sO/ji1/8or70hc9rvMCdEgEAACA575RlubI8l7mv5b5YqytPY80UnmSTfmNIyrNcKytNLdVXFAWBwiBQGAYHeor+rghImTcql8sHOhxJ0ujoqHLf6j/irg8AAAC9KY4TrcSJkiRVlmWt51yoUnHjcrl3cv7pjjxy3qmZpqrV6u3njJHCMFShUFBfqagoOliRoytvFHt5/ru6tvjBgdjW44PndGr4ZT4JAAAAoLmFJTWasdIsU5pl8r41PC4LyyrdH6SaiXwaK4kDWWNlrVEYhCrfn6R2Kc1yxUnSGrbnnJw3UnFgY0ByTs1mrJr1rWF51igwVoXIK00z1esrGqz2E5Cett+/8W+0GM/ual1jjPqLgxoojagUVVQMy7ImUGhD5T5X7jIlWaxmWtdSc17L8UJ7nOdu3Fi68FgCUp7nunLlyrY/D4JAQdAaTxqG4Ya/d4rhAas/+nbUukbLe3n/0V3Wf+f3Yi3VuVYLOKg+8UJB504G7XParI57n1t0+p2vJBQI6EJ/+PWSDo0YSR+d85J07Y7T17+fddz21mo1Xbp06b5nvayxCsNWu2mtPRUEgRYW5tVXre7591b7KzLGaKXRlIyRd17eO5Wsk5anNb88rYUbXpLVSLXYvobIysgGVsE+XicUhlZGkfK81VPlvFfk6krnV3R37qbuWSN5aWKkX1nmZKyRlVEQWAXWyFqrcrmoSrmoZhwTkJ6mnQaWKChoYuCERvsOa6A8osCGssaqHPWrXOhXFBQUmEBevh2QVtKamumKnMu11JzXXP2u7ixdVZw1d/S7/WOakGFmZkaFQmFH6xQKBZ09e7Zj9uPYkNVf+JOtD4l2OGrFWL33vRkCEnCAvftqQT/z6fKm5y9eywhIQJf6yU8W9crZgozRajjyMpI+//Wk4wJSHMdqNBpKkkf/PHLOaXB4ZM9fNkdhqOHBqoYHq0rTTEmSKnW5AtMKPlmWP7b24/2MjMIw1MPe0tokEVEYKAgDRUGoQhQqDIMDeayGvXyiDpZHdXTwpMarkzKrF5wZYzVQHNFgZUTWbN6poY1UDMvqLw0qyWLNr9yTl1e1NKTjI2c1W7+jW4tTWliZfmrvq9FoSNKOTuq1D4P4AKV7AACAx+HWrVsqFovK83xH61288KHOP//Cvm1HFIXt63f6SiWVigX51TCW5065c3J5vjqDnVPuc7m8NVud8251Gjsp962L3L283OpzfjWgSq3ePNuevU7tv1trpdXevsAYBWGgwAarPUSt3iprA3mXa7G+0jX7vycDUimq6NTYixquHGodNC6XlCu0kcb7j6gQlpS7XLnWnxT+vqTcmkhhpHJIxaCkmfptee81VB7TUHlMcyv3dGXmh4qzxhN/f9PT07v+9uLDDz/UmTNn+GQEAAA9KUkSee93/EXz2rr1+rKsfXw9J0ZqhRPbOVNuZ667joGeC0iHqs/oxMg5WWuVuY8O/CgoaLx6RMYYpXm86VZE93dlrv93FBY1Ujmse8s35FdnEhkoDetjR9/WzYXLurt07Yl1hSbNpvI83/E3HmviON7VBwIAAEA3uHPnzp6GyV28cEFnz52nkASkzmdkdHzkrMb6j8r5XG5dgLAm0FD/uLI8k1emB9+odeufGWtVLQ5ptn53w/NHBk+oHFV0de6DPU3m8KgW5meV7vHXfPjhh3ruuec4OwAAQE9J07R9s9Xdmp1LtLJSf6y9SCAg7Vs4GqqMb+g1WjNUHpTzuZI819ZTyW/fe7R+kdAWFNhw07C6/tKQjo+c09W5H7V7mB6HLElUb7beXxiGqlQq29dk052SjRYWFuSc0/T0tI4dO8bZAQAAesq9e/fa7aNyuawoirZtR93fnmoNr2vdC+jShQs6Qy8SAamTHRp4Rv2lIWX55nAU2FChLSjJmq3gs2X2eXCoaf/Ue5XCiurx0qZlylGfJgZO6Pbi1GN7n4sLc0oypyAI9MILL+ill17acrkgCFZnJGk9oihSGIb66le/qq9+9atKkkQXLlygFwkAAPSMLMuUJImMMRoaGtLHP/5xTU5ObhmO1rej1h5TU1P6xje+oWvXrunezKwmj9GLREDqUJVCv4bKY8ryVFuln0JYUpI31wWhzZMxPCAStf95f4jKXLppnf7igKqlIdWaC/v+PvM00XIjlrVW586dU19f345f4/Dhw3rzzTf15S9/Wbdv36YXCQAA9IzZ2Vk55zQwMKBz587teNSP915vvfWW4jjW9evXdfniRZ0+e47CEpA6i5HRufFP6FDfMW137VC50KfABut6gR4YhbT99UkfPT9cPKz0vt6qtXOsEg7oe7e/su/XIy0tLihJc507d079/f27Hjs7MTGh119/XV/+8pd18eJFnTp1irMEAAB0tTzP1Wg0VK1WderUKVlrdxWQjDF68803WyHpxg0dO36c4hKQOkulUNUbR39C5ah/22WCYP+7Pr33GwLK+hNssnpal2a/p+V4cf9+X56pttLUyZMn2z1Hu7nWaW2diYkJfeITn9B7771HLxIAAOh68/PziqJIJ06caN37R9rxl81ryxtj9PrrryuOY129cknDwyMU+ICx3fzmSlFF1rS+Adju4Zx7LI/1v2NjwY2KYXlf32d9uaZDhw5tmJRhr5NBTExM6JVXXtGlS5c4SwAAQNfK81zee01OTrYnXNhNW2r98sYYfeITn9ByI1HSbFJkAlJnMDIKbKi7y9efeEB60O+7W78uY6ys2Z+eK+e9olJFpVJp25N0Nye21LomaWRkZE9TXQIAAHSyNE01Ojq6IRxJO+9B8vddPmGM0WuvvabFpSWKfMB07RC7wIbKXaYvXv2XD06IJpAxW03GsLn3Z3PkcPedGPet/8DtCzbci2nXCdcYFYvFfanZ2tjZ9Q4dOtTuagYAAOg2pVJpy7ZOvsN2ms83BypjjMYPHdLdKz+i0ASkDvlGYItpvfWQyPPoP32E9R/Qi/M474cEAAAAgIB0X3RxW0y1vZNws8dw9NCfM2wNAAAAICA9Ic4/JCA9qHdHe+vdeZTeof2e5hsAAAAAAemBISXLU4U2UiWq7mzdhwUkv/v168mCcp9z5AEAAAAEpCfL+Vx/6txf0lhlsmO26cbSRf3Wh/+AIw8AAADoQF0/PVl/YaijtqfaYdsDAAAAoIcCUpw32B4AAAAAjyTs9jf4mx/8Aw2Vxjtme+abdznqAAAAAALS07GcLGg5WWBPAwAAAHgoSwkAAAAAgIAEAAAAAAQkAAAAACAgAQAAAECvBaTABGwrAAAAgB3rylns3j32p3R7+dKB2NYj/c9xFAIAAAAEpH3k/YZ/nhg6rxND59m7AAAAAHovIBWsV22lritXrujIkSPrclMrOFlrZYyRMUZpmrb//uTym2//TmOMvPfK81zWfjTCMc9zXbp4QUXrZDguAQAAAALSXgLSqI31O7/+j9rPjQwO6LtT9+SjkoaGhtqP73z1Czp1ZFzVvvIT2bZmkulbV2c2bEPWrOvmpQ907NCQ4jTbsPxwxEEJAAAAPC3MYgcAAAAAq0JKgE51ezbX//OfLkuSvPPyklzuJCNNzzsKBBxg/+4rTb1/OZX3fsNw6FrdUxygS/2z327o332lKWn1nDdWMtK9Wf6fDgIS8EiW616ffy9pN6Ccc3LOtRtST/I6MgD764OpTD+6krbPa2NM+7xef30mgO7x7Q8SOec2XZttreW8R0fhaAQAAAAAAhIAAAAAEJAAAAAAgIAEAAAAAAQkAAAAACAgAQAAAAABCQAAAAB2jPsgPYCX5Ffvu+O81+q9DGWtUesOPEbWci8eAAAAgIB0QDWbieaWaqo3Gsqdk8ud8tWblq3dzT13O7+js1292Vn779YqsFa5Nt8V3jmvLM/lPHeOBgAAAAhIj0mSpkrSTEmSanl5RSvNVOWotGGZlWZTS8uBSoVoX3+3815rXUy5JOW5JClzXtLG35VmmeaXarI+k/dSGAaKolCFMFSxUFAQMPIRAAAAICDtUr3eUG1lRVmWt3qFnFcUhcpdcN+SXkmaaqUZt4bOGaPAWoWhlTX7E0q8pDzLlOWtXqnUeSncGJCc80rSTM04kfNeQWJlAqPAWMkYFQuhBgeqioKgpw/OE0cC/V9+ob9VV69WL58kyej//N/O6+Y9euAOqtOnT+tP/Ik/0e61be1jr+9+97v6whe+QIF6wH/y0336Y58sbnp+6lau/+q/XaJAPSiKIhlj2p8LZnVkRpIkFKdL/B/+fFUvnIpkjFZH3XgZSV/5Tqp/8q8aFAgEpP2U5pmcc0qyTC7P5ZyXc05WgZLagubiuuoLM5opFFUMA+VZrqb3MrYVkPI8ULlU3J9tSVMlSabc5a3rlpxk3Irq86mS+qIWZ+4oS2IVrFGSJvLeKDdG1lnZKJKRlKW5XJZLPR6QCpHR4VG7+j/MjQEpDDh5D7KRkRG9/fbbG8KR9161Wo2A1CMGq0ZHxjefyPWGpzg96hd/8Rf10ksvtcPRmp/92Z9VvjoqAwfb6JDVxFiwKSAND7B/QUDad0MDVQ309akRJ+1hdoUoWB32JnmfSUmqPKnr6PiwZKS1aRb2v1EfqRBt7DFqN+x9LMWxijI6MjakJMuU507WGkVhqChqDbErFQscmQAAAAABafdsYNVXKalPrWuOhgcHlKWZkixTlrV6mPLcKXe58ty3enhyp8zl8o/pC8vAWllrFASBQhsoCKystQoCq8AGSrJE3rW2HQAAAAAB6bExkgpRqEL08LfonJfklbu1pOSV5x/9ff3sdsaofb2StUbem9ZzdvU589G46fVDBLayvCLFafZY3r9zTrdv3946TNq1oBa0wlsYKggCee8fus0AAAC9oF6v6+bNm5val2tffq9/hGGo5eVl9VWrFI6A1B1a9zIysus6cqIDXpmZmRktLe3sQudSqaTnnnuOAwIAAPS0LMtUr9cVx/Ejr+O91+DQkMSXzQQkdJ44jpXn+Y5OaklqNptK05QCAgCAnnbz5k1FUbTjCUIuXPhQZ86eo4AEJHSae/fuKdjlDHgXLlzQqVOnKCIAAOhJ2er1634XF6mnaaq42aSIBCR01EmdJsrzfNdTos7MzOj48eMUEgAA9KQ7d+4oCIJdt6UuXPhQz50+QyEJSOgU87MzSvd4/9QLFy7o5MmTFBMAAPSUPM+Vpume7r01PTOrZ545RjEJSOiIkzpLVW+27jgehqGqD5hJZf1Me2uPubk5ZVmmO3fu6JlnnqGgAACgp9y7d6/99/7+fkX33dvy/nbU+r+naaqFhQVJ0sWLF+hFIiAdTF5Slrfuh5Q7t26sqZcxVtYYWWsU2uBA3KtoaWFOcZIrDEO98MIL+tjHPrblcmvTUa49oihSGIZ677339OUvf1l5nuvSpUs6ceIEZwgAAOgJeZ6r2WzKGKORkRG98sormpyc3DIcrW9HrT2uXr2qb37zm5qamtKdu/d07BiXLBxUPXmH0jhJtbRc19zikpaW61puNNSIYzWTZPWRqhHHqjebqq00NL+8rPmlmuqNhrI9dLk+Ti7PtLTcUJ7neu6551SpVHb8GmNjY3rnnXeU57lu3LihLMs4QwAAQE+YnZ1VmqaqVCo6e/bsjidpcM7pjTfe0JEjR9RsNnX50kWKSkDqfEmWaaFW03KjoXSHQcd5r2aSanG5ruWVhtwuZjZ5nJaXFpXluU6cOKH+/v5dzbwiSePj43rrrbeUpqmuXLnCGQIAALqec06NRkOlUknPPvusjDE7bkt572WM0euvv66JiQldu3FTaZJQXAJS50rTTMv1hnK392ATp6lqyyvqlIjkXa5avaGjR4+qr6+vfZLu+HVW1xkfH9frr7+ua9eu0YsEAAC63sLCggqFgo4dO9a+tmg3PUhSawjexz/+cY2Njen61GWKS0DqXI04lt/HSJO5XEnSGTdVbdSXNTY+rnK5vOkk3a2xsTG98sorunbtGmcJAADoWs455Xmuw4cPt8PRbtpS6wOVMUavvfaaao1YWZpSZAJSZ1p/wO9b8ax5+ie19wqLZRWLxW1P0t2c2GshaWBggLMEAAB0rSzLND4+LmvtntpS9y9vjNHLL7+sxaUlikxA6kzlUkl2H0NSIWzN/PbUd6CxKhQK+/JaW30QjI2NcZYAAICudf+XzOuD047aUVtc326M0ejoKEUmIHWmMLAa7O9TYY+hxhqjSrGoal9ZpiPemecoBgAA2G1LytOWwn25oafSoLWq9lWU5U5JkirNMuUuf2jEsMYoDAIVokiFKJIxHDgAAAAAAalb3nRgFZaLkory8q0bxXov73x7ikZjWsHI2EBBYCW+XQAAAAAISN3OyCgIAgUPWohwBAAAAPQESwkAAAAAgIAEAAAAAAQkAAAAACAgAQAAAAABCQAAAAAeLqQEu+O8lGWpnPNy3kvey1ora1v3TLKW7AkAAAAQkLpcnudaacZKsuyBywU2ULlYUKEQifvKAgAAAAcD3Rw7CUfOaXG5/tBw1Fo213KjoWacUDgAAACAgNR9nHPa6S1j8zyncAAAAMAB0ZND7HLn5JyX1+q1Q8bIGKPAWslsPyAuDEOVigXFzUT+EcbNhTZQpVzkKAMAAAAISJ0lzXLFSaIkTbftBTJqTbBQLEYqRtEWP5f6SiWVCgUlaaoszZV7L+dc6+dWsrKKwlBRFCiKIsl7jjIAAACAgNQhjFF9ZUXNJH3ool5eaZ4pXcnUtImqfRVZu7mrKLBW5WJReljnEOEIAAAAOFC6/hqkJEkfKRzdL3O5Gs0mRwgAAABAQOoezrvdryt6gAAAAAACUhcpFgqKgmDnhbFWlSITLAAAAAC9pOuvQTKSBvr7FMeJGkmq3OUPWd6oVCyoXCzIGG7xCgAAAPSS//8AOP8QrTDyUkkAAAAASUVORK5CYII=;" parent="1" vertex="1">
          <mxGeometry width="840" height="650" as="geometry" />
        </mxCell>
        <mxCell id="high_score_label_start" value="High Score: 4321" style="shape=label;align=center;verticalAlign=middle;fontSize=24;html=1;" parent="1" vertex="1">
          <mxGeometry x="540" y="610" width="300" height="40" as="geometry" />
        </mxCell>
        <mxCell id="player_car_static_shape" value="Player Car" style="shape=rectangle;fillColor=#007FFF;strokeColor=#000000;fontColor=#FFFFFF;align=center;verticalAlign=middle;fontSize=10;" parent="1" vertex="1">
          <mxGeometry x="380" y="450" width="80" height="100" as="geometry" />
        </mxCell>
        <mxCell id="U9criQo1KGCiRjgPC58A-1" value="&lt;div&gt;&lt;span style=&quot;background-color: transparent; color: light-dark(rgb(0, 0, 0), rgb(255, 255, 255));&quot;&gt;Score: 1234&lt;/span&gt;&lt;/div&gt;" style="shape=label;align=center;verticalAlign=middle;fontSize=24;html=1;" vertex="1" parent="1">
          <mxGeometry y="610" width="300" height="40" as="geometry" />
        </mxCell>
        <mxCell id="U9criQo1KGCiRjgPC58A-2" value="NPC Car" style="shape=rectangle;fillColor=#FF0000;strokeColor=#000000;fontColor=#FFFFFF;align=center;verticalAlign=middle;fontSize=10;" vertex="1" parent="1">
          <mxGeometry x="210" y="160" width="80" height="100" as="geometry" />
        </mxCell>
        <mxCell id="U9criQo1KGCiRjgPC58A-3" value="NPC Car" style="shape=rectangle;fillColor=#FF0000;strokeColor=#000000;fontColor=#FFFFFF;align=center;verticalAlign=middle;fontSize=10;" vertex="1" parent="1">
          <mxGeometry x="210" y="470" width="80" height="100" as="geometry" />
        </mxCell>
        <mxCell id="U9criQo1KGCiRjgPC58A-4" value="NPC Car" style="shape=rectangle;fillColor=#FF0000;strokeColor=#000000;fontColor=#FFFFFF;align=center;verticalAlign=middle;fontSize=10;" vertex="1" parent="1">
          <mxGeometry x="430" y="140" width="80" height="100" as="geometry" />
        </mxCell>
        <mxCell id="U9criQo1KGCiRjgPC58A-5" value="NPC Car" style="shape=rectangle;fillColor=#FF0000;strokeColor=#000000;fontColor=#FFFFFF;align=center;verticalAlign=middle;fontSize=10;" vertex="1" parent="1">
          <mxGeometry x="580" y="325" width="80" height="100" as="geometry" />
        </mxCell>
        <mxCell id="U9criQo1KGCiRjgPC58A-6" value="NPC Car" style="shape=rectangle;fillColor=#FF0000;strokeColor=#000000;fontColor=#FFFFFF;align=center;verticalAlign=middle;fontSize=10;" vertex="1" parent="1">
          <mxGeometry x="610" y="40" width="80" height="100" as="geometry" />
        </mxCell>
      </root>
    </mxGraphModel>
  </diagram>
</mxfile>
